<svg width="64" height="64" viewBox="0 0 64 64" xmlns="http://www.w3.org/2000/svg">
  <defs>
    <linearGradient id="uchicago-maroon" x1="0%" y1="0%" x2="100%" y2="100%">
      <stop offset="0%" stop-color="#800000"/>
      <stop offset="100%" stop-color="#630000"/>
    </linearGradient>
  </defs>
  <rect x="4" y="4" width="56" height="56" rx="12" fill="url(#uchicago-maroon)" />
  <path d="M18 22h8v18c0 3.5-2.5 6.5-8 6.5-5.4 0-8-3-8-6.5V22h8v16c0 1.2.4 2 1.8 2 1.4 0 2.2-.8 2.2-2V22z" fill="#ffffff"/>
  <path d="M46 46.5c-8.5 0-12-4.6-12-12.2V22h8v12.2c0 3 1.3 4.8 4 4.8 2.6 0 4-1.8 4-4.8V22h8v12.3c0 7.5-3.6 12.2-12 12.2z" fill="#ffffff"/>
</svg>


